<svg width="30" height="30" viewBox="0 0 30 30" xmlns="http://www.w3.org/2000/svg">
<g clip-path="url(#clip0)">
<path d="M20.625 21.0642C20.3014 21.0642 20.0391 21.3267 20.0391 21.6501C20.0391 21.9736 20.3014 22.2361 20.625 22.2361C20.9484 22.2361 21.2109 21.9736 21.2109 21.6501C21.2109 21.3267 20.9484 21.0642 20.625 21.0642Z"/>
<path d="M15.5859 10.752C15.5859 10.4283 15.3234 10.166 15 10.166C14.6766 10.166 14.4141 10.4283 14.4141 10.752C14.4141 11.0754 14.6766 11.3379 15 11.3379C15.3234 11.3379 15.5859 11.0754 15.5859 10.752Z"/>
<path d="M9.375 22.2361C9.69841 22.2361 9.96094 21.9736 9.96094 21.6501C9.96094 21.3267 9.69841 21.0642 9.375 21.0642C9.05159 21.0642 8.78906 21.3267 8.78906 21.6501C8.78906 21.9736 9.05159 22.2361 9.375 22.2361Z"/>
<path d="M29.6519 25.0205L26.4842 23.6131V10.752C26.4842 10.5199 26.3453 10.3049 26.1244 10.2111L15.586 5.67856V1.37695C15.586 1.05331 15.3234 0.791016 15 0.791016C14.6764 0.791016 14.4141 1.05331 14.4141 1.37695V5.67856L3.87569 10.2111C3.66626 10.2981 3.51588 10.5103 3.51588 10.752V23.6131L0.348159 25.0205C0.0524434 25.1521 -0.0807658 25.4981 0.0506123 25.7938C0.181075 26.0877 0.526229 26.2237 0.824004 26.0914L4.10548 24.6334L14.7686 29.2195C14.9096 29.2802 15.082 29.2838 15.2317 29.2195L25.8946 24.6334L29.1761 26.0914C29.475 26.2241 29.8194 26.0866 29.9495 25.7938C30.0808 25.4981 29.9476 25.1521 29.6519 25.0205ZM14.4141 6.95435V8.40821C14.4141 8.73162 14.6764 8.99414 15 8.99414C15.3234 8.99414 15.586 8.73162 15.586 8.40821V6.95435L24.4153 10.752L15 14.8016L5.58475 10.752L14.4141 6.95435ZM7.76897 22.3643C7.63736 22.0686 7.29106 21.9356 6.99558 22.0667L4.68753 23.0924V11.6416L14.4141 15.8251V27.7915L5.56438 23.9852L7.47142 23.1379C7.76714 23.0063 7.90035 22.66 7.76897 22.3643ZM15.586 27.7915V15.8251L25.3123 11.6416V23.0924L23.0045 22.067C22.7085 21.9356 22.3625 22.0686 22.2311 22.3645C22.0997 22.6602 22.2329 23.0063 22.5286 23.1379L24.4357 23.9852L15.586 27.7915Z"/>
</g>
<defs>
<clipPath id="clip0">
<rect width="30" height="29.9414"/>
</clipPath>
</defs>
</svg>
