<svg width="35" height="35" viewBox="0 0 35 35" xmlns="http://www.w3.org/2000/svg">
<g clip-path="url(#clip0)">
<path d="M34.9325 19.1167C34.6183 15.9559 33.2062 12.976 30.9561 10.7259C29.0333 8.80314 26.6798 7.56752 24.2034 7.01811V5.28121C25.2148 5.02957 25.9666 4.11402 25.9666 3.02579C25.9666 1.74417 24.924 0.701538 23.6424 0.701538H18.7204C17.4388 0.701538 16.3962 1.74417 16.3962 3.02579C16.3962 4.11395 17.148 5.0295 18.1594 5.28121V7.02296C15.6906 7.5747 13.3448 8.80861 11.4275 10.726C11.0079 11.1456 10.621 11.5857 10.2668 12.0432C10.2496 12.0419 10.2325 12.0406 10.215 12.0406H5.34353C4.96604 12.0406 4.65993 12.3467 4.65993 12.7242C4.65993 13.1018 4.96604 13.4078 5.34353 13.4078H9.3366C8.83538 14.247 8.43124 15.1282 8.12361 16.0353H0.683604C0.306118 16.0353 0 16.3414 0 16.7189C0 17.0965 0.306118 17.4025 0.683604 17.4025H7.73731C7.54029 18.2674 7.42723 19.1475 7.39804 20.0301H4.37507C3.99758 20.0301 3.69146 20.3362 3.69146 20.7137C3.69146 21.0913 3.99758 21.3973 4.37507 21.3973H7.41984C7.47754 22.2822 7.6198 23.1624 7.84668 24.0249H3.41802C3.04054 24.0249 2.73442 24.3309 2.73442 24.7085C2.73442 25.086 3.04054 25.3921 3.41802 25.3921H8.28296C8.95358 27.1661 10.0016 28.8288 11.4275 30.2547C13.6797 32.5069 16.6627 33.9194 19.8268 34.232C20.2784 34.2766 20.7303 34.2986 21.1816 34.2986C23.8492 34.2986 26.4828 33.5266 28.7175 32.0714C29.0339 31.8653 29.1234 31.4419 28.9174 31.1255C28.7113 30.8091 28.2878 30.7196 27.9715 30.9257C23.0798 34.1111 16.5286 33.4223 12.3942 29.288C7.54323 24.437 7.54323 16.5439 12.3942 11.6928C17.2452 6.84188 25.1383 6.84188 29.9893 11.6928C34.1182 15.8218 34.8107 22.3673 31.6358 27.2566C31.4302 27.5733 31.5202 27.9967 31.8368 28.2023C32.1536 28.4079 32.5769 28.3179 32.7825 28.0012C34.4788 25.3888 35.2423 22.2336 34.9325 19.1167ZM17.7634 3.02586C17.7634 2.49812 18.1927 2.06881 18.7204 2.06881H23.6424C24.1701 2.06881 24.5994 2.49812 24.5994 3.02586C24.5994 3.5536 24.1701 3.98291 23.6424 3.98291H23.5198H18.843H18.7204C18.1927 3.98291 17.7634 3.55353 17.7634 3.02586ZM19.5266 6.78794V5.35012H22.8361V6.78548C21.7372 6.65477 20.6254 6.65559 19.5266 6.78794Z"/>
<path d="M30.4729 29.0874C30.2924 29.0874 30.1167 29.1605 29.9897 29.2877C29.8618 29.4148 29.7893 29.5912 29.7893 29.771C29.7893 29.9508 29.8618 30.1271 29.9897 30.2543C30.1167 30.3821 30.2925 30.4546 30.4729 30.4546C30.6527 30.4546 30.8284 30.3821 30.9562 30.2543C31.0834 30.1271 31.1565 29.9508 31.1565 29.771C31.1565 29.5912 31.0834 29.4148 30.9562 29.2877C30.8284 29.1605 30.6526 29.0874 30.4729 29.0874Z"/>
<path d="M21.1918 9.88562C15.3444 9.88562 10.5872 14.6428 10.5872 20.4903C10.5872 26.3378 15.3444 31.095 21.1918 31.095C27.0393 31.095 31.7965 26.3378 31.7965 20.4903C31.7965 14.6428 27.0393 9.88562 21.1918 9.88562ZM21.1918 29.7278C16.0982 29.7278 11.9544 25.5838 11.9544 20.4903C11.9544 15.3968 16.0982 11.2528 21.1918 11.2528C26.2855 11.2528 30.4293 15.3968 30.4293 20.4903C30.4293 25.5838 26.2855 29.7278 21.1918 29.7278Z"/>
<path d="M25.5159 15.1992L22.13 18.5851C21.8469 18.4451 21.5284 18.366 21.1917 18.366C20.855 18.366 20.5366 18.4451 20.2534 18.5851L18.7381 17.0697C18.4711 16.8028 18.0383 16.8028 17.7713 17.0697C17.5043 17.3367 17.5043 17.7695 17.7713 18.0365L19.2866 19.5518C19.1465 19.835 19.0675 20.1535 19.0675 20.4901C19.0675 21.6614 20.0204 22.6144 21.1917 22.6144C22.3631 22.6144 23.316 21.6614 23.316 20.4901C23.316 20.1535 23.2369 19.835 23.0969 19.5518L26.3834 16.2653L26.4827 16.166C26.7496 15.899 26.7496 15.4662 26.4827 15.1992C26.2157 14.9323 25.783 14.9323 25.5159 15.1992ZM21.1917 21.2472C20.7743 21.2472 20.4347 20.9076 20.4347 20.4902C20.4347 20.0728 20.7743 19.7332 21.1917 19.7332C21.6091 19.7332 21.9488 20.0728 21.9488 20.4902C21.9488 20.9076 21.6091 21.2472 21.1917 21.2472Z"/>
<path d="M28.5008 19.8149H27.8674C27.49 19.8149 27.1838 20.121 27.1838 20.4985C27.1838 20.8761 27.49 21.1821 27.8674 21.1821H28.5008C28.8783 21.1821 29.1844 20.8761 29.1844 20.4985C29.1844 20.121 28.8783 19.8149 28.5008 19.8149Z"/>
<path d="M14.5161 19.7983H13.8828C13.5053 19.7983 13.1992 20.1044 13.1992 20.4819C13.1992 20.8595 13.5053 21.1655 13.8828 21.1655H14.5161C14.8936 21.1655 15.1997 20.8595 15.1997 20.4819C15.1997 20.1044 14.8936 19.7983 14.5161 19.7983Z"/>
<path d="M21.2001 14.4981C21.5776 14.4981 21.8837 14.1921 21.8837 13.8146V13.1813C21.8837 12.8037 21.5776 12.4977 21.2001 12.4977C20.8226 12.4977 20.5165 12.8037 20.5165 13.1813V13.8146C20.5165 14.1921 20.8226 14.4981 21.2001 14.4981Z"/>
<path d="M21.1835 26.4824C20.806 26.4824 20.4999 26.7885 20.4999 27.166V27.7993C20.4999 28.1768 20.806 28.4829 21.1835 28.4829C21.561 28.4829 21.8671 28.1768 21.8671 27.7993V27.166C21.8671 26.7885 21.561 26.4824 21.1835 26.4824Z"/>
<path d="M0.683594 24.0247C0.503809 24.0247 0.327441 24.0978 0.200293 24.225C0.0731445 24.3521 0 24.5285 0 24.7083C0 24.8887 0.0730762 25.0644 0.200293 25.1916C0.32751 25.3187 0.503809 25.3918 0.683594 25.3918C0.863379 25.3918 1.03975 25.3187 1.16683 25.1916C1.29397 25.0644 1.36719 24.888 1.36719 24.7083C1.36719 24.5285 1.29404 24.3521 1.16683 24.225C1.03975 24.0978 0.863379 24.0247 0.683594 24.0247Z"/>
</g>
<defs>
<clipPath id="clip0">
<rect width="35" height="35"/>
</clipPath>
</defs>
</svg>
