<svg viewBox="0 0 9 9" xmlns="http://www.w3.org/2000/svg">
<g clip-path="url(#clip0)">
<path d="M4.5 8.99976C3.29803 8.99976 2.16795 8.53167 1.31802 7.68174C0.468086 6.83181 0 5.70173 0 4.49976C0 3.29778 0.468086 2.1677 1.31802 1.31777C2.16795 0.467842 3.29803 -0.000244141 4.5 -0.000244141C5.70197 -0.000244141 6.83205 0.467842 7.68198 1.31777C8.53191 2.1677 9 3.29778 9 4.49976C9 5.70173 8.53191 6.83181 7.68198 7.68174C6.83205 8.53167 5.70197 8.99976 4.5 8.99976ZM4.5 0.702881C2.40642 0.702881 0.703125 2.40617 0.703125 4.49976C0.703125 6.59334 2.40642 8.29663 4.5 8.29663C6.59358 8.29663 8.29688 6.59334 8.29688 4.49976C8.29688 2.40617 6.59358 0.702881 4.5 0.702881ZM6.35202 6.35178L5.85482 5.85458C5.10775 6.60165 3.89225 6.60165 3.14518 5.85458C2.39811 5.10751 2.39811 3.89201 3.14518 3.14494C3.89225 2.39787 5.10775 2.39787 5.85482 3.14494L6.35202 2.64774C5.33077 1.62656 3.66916 1.62656 2.64798 2.64774C1.6268 3.66898 1.6268 5.3306 2.64798 6.35178C3.15857 6.86237 3.82928 7.11766 4.5 7.11766C5.17065 7.11766 5.84143 6.86237 6.35202 6.35178Z"/>
</g>
<defs>
<clipPath id="clip0">
<rect transform="translate(0 -0.000244141)"/>
</clipPath>
</defs>
</svg>
