<svg width="35" height="35" viewBox="0 0 35 35" xmlns="http://www.w3.org/2000/svg">
<path d="M28.4833 22.0647C28.1656 22.0647 27.9078 21.8073 27.9078 21.4893V21.2703C27.9078 20.5978 26.9482 19.938 25.9705 19.938H23.618C23.3003 19.938 23.0428 19.6809 23.0428 19.3629C23.0428 19.0449 23.3003 18.7875 23.618 18.7875H25.9705C27.4311 18.7875 29.0584 19.8074 29.0584 21.2703V21.4893C29.0584 21.8073 28.801 22.0647 28.4833 22.0647Z"/>
<path d="M26.1825 15.0478C26.1667 15.0478 26.1509 15.0475 26.1351 15.0462C25.8181 15.0198 25.5823 14.7423 25.6087 14.4256L25.8964 10.914C25.8941 8.93189 24.3613 7.28094 22.4773 7.28094H19.5309C17.6466 7.28094 16.1138 8.93189 16.1138 10.9611L16.3992 14.4256C16.4256 14.7423 16.1898 15.0198 15.8728 15.0462C15.5581 15.0722 15.2789 14.8368 15.2526 14.5198L14.9652 11.0082C14.9632 8.29752 17.0122 6.13037 19.5309 6.13037H22.477C24.996 6.13037 27.045 8.29752 27.045 10.9611L26.7553 14.5198C26.7306 14.8204 26.4791 15.0478 26.1825 15.0478Z"/>
<path d="M21.0041 20.5135C20.322 20.5135 19.6346 20.4038 19.016 20.1961C18.7148 20.0951 18.5525 19.7685 18.6539 19.4673C18.7553 19.1664 19.0812 19.0051 19.3821 19.1048C19.8842 19.2734 20.4448 19.3629 21.0038 19.3629C22.3077 19.3629 23.5143 18.8908 24.1523 18.1307C25.022 17.0937 25.6064 15.6136 25.6064 14.4482V12.1296C25.6064 11.8274 25.5445 11.6256 25.4227 11.5315C24.9891 11.1937 23.6114 11.5437 22.396 11.8521C21.2849 12.1342 20.1367 12.4262 19.096 12.4262C17.8013 12.4262 16.9295 11.9604 16.4078 11.6401C16.4038 11.7688 16.4015 11.9292 16.4015 12.1296V14.4482C16.4015 15.2877 16.7142 16.3323 17.2383 17.2422C17.397 17.5177 17.3022 17.8693 17.027 18.0277C16.7514 18.1867 16.3999 18.0922 16.2412 17.8163C15.6117 16.723 15.2506 15.4954 15.2506 14.4482V12.1296C15.2506 11.1512 15.2727 10.5857 15.728 10.3345C16.1339 10.107 16.518 10.3513 16.8565 10.5636C17.3062 10.8474 17.986 11.2757 19.096 11.2757C19.9925 11.2757 21.0703 11.0015 22.1125 10.7368C23.7971 10.3091 25.2505 9.93911 26.1291 10.6229C26.5459 10.9468 26.7569 11.4538 26.7569 12.1296V14.4482C26.7569 15.8862 26.0808 17.6214 25.0336 18.8701C24.1704 19.8992 22.6636 20.5135 21.0041 20.5135Z"/>
<path d="M26.2544 27.6398C25.9913 27.6398 25.7536 27.4578 25.6937 27.1904C25.6243 26.8803 25.8195 26.5725 26.1296 26.5034L32.9573 24.9746C33.2108 24.9298 33.4089 24.8037 33.5413 24.6151C33.6736 24.4264 33.7246 24.1976 33.6848 23.9705C33.6321 23.6689 33.4205 23.4155 33.1334 23.3088C32.8351 23.1985 32.683 22.8677 32.7937 22.5694C32.9043 22.2715 33.2364 22.1181 33.5327 22.23C34.2023 22.4779 34.6951 23.0688 34.8183 23.7717C34.9114 24.3017 34.7923 24.8356 34.4831 25.2758C34.1743 25.7163 33.7121 26.0096 33.1821 26.1028L26.3808 27.626C26.3386 27.6352 26.2962 27.6398 26.2544 27.6398Z"/>
<path d="M18.4706 30.8692H14.1001C14.0583 30.8692 14.0165 30.865 13.9753 30.8557L8.79763 29.7052C8.48752 29.636 8.29165 29.3286 8.36078 29.0188C8.42958 28.7087 8.7364 28.5151 9.04684 28.5816L14.1633 29.7187H18.4706C20.7158 29.7187 22.9181 28.946 24.6718 27.5433C24.6873 27.5308 24.7034 27.5196 24.7199 27.5091L33.2354 22.0334C33.263 22.0153 33.292 22.0002 33.322 21.9873C33.5343 21.8974 33.6986 21.7299 33.7851 21.5166C33.8717 21.3026 33.8694 21.0675 33.7795 20.8558C33.5935 20.4173 33.0859 20.2122 32.6481 20.3982L24.1 23.9224C24.0305 23.951 23.9558 23.9655 23.8807 23.9655H12.9495C12.7421 23.9655 12.5509 23.8542 12.4488 23.6738C12.3468 23.4931 12.3497 23.2715 12.4564 23.0941L14.1824 20.2175C14.2861 20.0447 14.4734 19.9384 14.6756 19.9384H16.977C18.0473 19.9384 18.9493 19.2042 19.2054 18.2123H13.1378L5.28964 23.9681C5.03287 24.1561 4.6737 24.0995 4.4854 23.8444C4.29775 23.5882 4.35306 23.2281 4.60918 23.0398L12.6095 17.173C12.7079 17.1006 12.8271 17.0618 12.9495 17.0618H19.8533C20.1709 17.0618 20.4287 17.3192 20.4287 17.6372C20.4287 19.5407 18.8801 21.0892 16.9767 21.0892H15.0015L13.9658 22.8153H23.7668L32.2043 19.3369C33.2212 18.9047 34.4054 19.3846 34.8389 20.4065C35.049 20.9016 35.0539 21.4487 34.8521 21.9478C34.6572 22.4304 34.2918 22.8113 33.8204 23.026L25.3674 28.4611C23.4139 30.014 20.9663 30.8692 18.4706 30.8692Z"/>
<path d="M6.225 34.1251C6.19438 34.1251 6.16344 34.1228 6.13282 34.1179C5.98205 34.0932 5.8474 34.0099 5.75819 33.8865L0.109052 26.0498C0.0195091 25.9263 -0.0170325 25.7716 0.00765774 25.6211C0.0320188 25.4707 0.115307 25.336 0.239088 25.2465L3.97226 22.5553C4.23068 22.3716 4.58984 22.4282 4.77551 22.6856L10.4246 30.5217C10.6106 30.7794 10.5524 31.1389 10.2946 31.3249L6.56144 34.0168C6.46301 34.0876 6.34483 34.1251 6.225 34.1251ZM1.37879 25.8437L6.35536 32.7464L9.15524 30.7278L4.17867 23.825L1.37879 25.8437Z"/>
<path d="M7.77147 30.2942C7.77147 30.9296 7.25626 31.4447 6.6209 31.4447C5.98554 31.4447 5.47034 30.9296 5.47034 30.2942C5.47034 29.6585 5.98554 29.1433 6.6209 29.1433C7.25626 29.1433 7.77147 29.6585 7.77147 30.2942Z"/>
<path d="M21.0043 4.40421C20.6863 4.40421 20.4288 4.14711 20.4288 3.8291V1.52763C20.4288 1.20962 20.6863 0.952515 21.0043 0.952515C21.322 0.952515 21.5794 1.20962 21.5794 1.52763V3.8291C21.5794 4.14711 21.322 4.40421 21.0043 4.40421Z"/>
<path d="M23.3053 4.40438C23.1581 4.40438 23.011 4.34842 22.8987 4.23583C22.6739 4.01131 22.6739 3.64721 22.8987 3.42236L24.9121 1.40862C25.137 1.18411 25.5011 1.18411 25.7256 1.40862C25.9504 1.63347 25.9504 1.99757 25.7256 2.22242L23.7122 4.23583C23.5996 4.34842 23.4528 4.40438 23.3053 4.40438Z"/>
<path d="M18.7028 4.40425C18.5557 4.40425 18.4085 4.34828 18.2963 4.2357L16.5702 2.50968C16.3454 2.28517 16.3454 1.92107 16.5702 1.69622C16.7948 1.4717 17.1589 1.4717 17.3837 1.69622L19.1097 3.42223C19.3342 3.64708 19.3342 4.01118 19.1097 4.2357C18.9971 4.34828 18.85 4.40425 18.7028 4.40425Z"/>
</svg>
