<svg width="35" height="35" viewBox="0 0 35 35" xmlns="http://www.w3.org/2000/svg">
<path d="M23.3757 22.4464C22.5465 22.4464 21.8718 21.8625 21.8718 21.1448C21.8718 20.427 22.5465 19.8431 23.3757 19.8431C24.205 19.8431 24.8796 20.427 24.8796 21.1448C24.8796 21.5223 25.1858 21.8284 25.5632 21.8284C25.9407 21.8284 26.2468 21.5223 26.2468 21.1448C26.2468 19.8921 25.3135 18.8388 24.0593 18.5529V18.1974C24.0593 17.8199 23.7532 17.5138 23.3757 17.5138C22.9983 17.5138 22.6921 17.8199 22.6921 18.1974V18.5529C21.438 18.8388 20.5046 19.8921 20.5046 21.1448C20.5046 22.6163 21.7926 23.8136 23.3757 23.8136C24.205 23.8136 24.8796 24.3975 24.8796 25.1153C24.8796 25.8331 24.205 26.417 23.3757 26.417C22.5465 26.417 21.8718 25.8331 21.8718 25.1153C21.8718 24.7378 21.5657 24.4317 21.1882 24.4317C20.8108 24.4317 20.5046 24.7378 20.5046 25.1153C20.5046 26.368 21.438 27.4213 22.6921 27.7071V28.0025C22.6921 28.3799 22.9983 28.686 23.3757 28.686C23.7532 28.686 24.0593 28.3799 24.0593 28.0025V27.7071C25.3135 27.4213 26.2468 26.368 26.2468 25.1153C26.2468 23.6437 24.9589 22.4464 23.3757 22.4464Z"/>
<path d="M30.8631 18.3803C29.9701 16.9888 28.712 15.8754 27.2249 15.1605C26.8845 14.9968 26.476 15.1401 26.3125 15.4804C26.1489 15.8207 26.2922 16.2291 26.6325 16.3926C29.224 17.6384 30.8985 20.3003 30.8985 23.174C30.8985 24.4036 30.5954 25.6231 30.0221 26.7007C29.8447 27.0339 29.9711 27.4479 30.3045 27.6252C30.4067 27.6797 30.5166 27.7055 30.6249 27.7055C30.8695 27.7055 31.1061 27.5738 31.229 27.3428C31.9072 26.0684 32.2657 24.6267 32.2657 23.174C32.2657 21.4677 31.7807 19.8101 30.8631 18.3803Z" />
<path d="M24.4503 14.2873L24.4043 14.2872C24.0268 14.2872 23.7207 14.5933 23.7207 14.9708C23.7207 15.3484 24.0268 15.6544 24.4043 15.6544L24.4439 15.6545C24.445 15.6545 24.446 15.6545 24.4472 15.6545C24.8232 15.6545 25.1289 15.3506 25.1307 14.9741C25.1324 14.5966 24.8278 14.2891 24.4503 14.2873Z"/>
<path d="M20.1255 29.9553C17.534 28.7094 15.8595 26.0476 15.8595 23.174C15.8595 21.9443 16.1626 20.7249 16.7359 19.6473C16.9133 19.314 16.7869 18.9 16.4535 18.7227C16.1204 18.5454 15.7062 18.6718 15.529 19.0051C14.8508 20.2796 14.4923 21.7212 14.4923 23.174C14.4923 24.8802 14.9773 26.5378 15.8949 27.9677C16.7879 29.3591 18.046 30.4726 19.5331 31.1875C19.6286 31.2335 19.7295 31.2552 19.8288 31.2552C20.0834 31.2552 20.3277 31.1123 20.4455 30.8676C20.6089 30.5273 20.4658 30.1189 20.1255 29.9553Z"/>
<path d="M22.3536 30.6934L22.314 30.6932C21.9347 30.6926 21.629 30.996 21.6273 31.3736C21.6255 31.7512 21.9303 32.0586 22.3078 32.0604L22.3536 32.0606C22.7311 32.0606 23.0372 31.7544 23.0372 31.377C23.0372 30.9995 22.7311 30.6934 22.3536 30.6934Z"/>
<path d="M26.483 11.9744C26.3998 11.7761 26.2979 11.5893 26.1793 11.416H27.9589C29.6928 11.416 31.1035 10.0053 31.1035 8.27147C31.1035 6.5376 29.6928 5.12694 27.9589 5.12694H22.4847C22.8327 4.62095 23.0371 4.00879 23.0371 3.3496C23.0371 1.61574 21.6264 0.205078 19.8925 0.205078H3.14453C1.41066 0.205078 0 1.61574 0 3.3496C0 5.08347 1.41066 6.49413 3.14453 6.49413H8.61873C8.27072 7.00012 8.06639 7.61228 8.06639 8.27147C8.06639 8.93066 8.27065 9.54281 8.61873 10.0488H6.83592C5.10206 10.0488 3.6914 11.4595 3.6914 13.1933C3.6914 14.1891 4.1572 15.0777 4.88188 15.6543C4.1572 16.2308 3.6914 17.1194 3.6914 18.1152C3.6914 19.111 4.1572 19.9996 4.88188 20.5761C4.1572 21.1527 3.6914 22.0413 3.6914 23.0371C3.6914 24.0329 4.1572 24.9215 4.88188 25.498C4.1572 26.0745 3.6914 26.9631 3.6914 27.9589C3.6914 29.6928 5.10206 31.1035 6.83592 31.1035H14.8921C17.0143 33.3735 20.0335 34.7949 23.3789 34.7949C29.7868 34.7949 35 29.5817 35 23.1739C35 17.8407 31.3886 13.3357 26.483 11.9744ZM27.9589 6.49413C28.939 6.49413 29.7363 7.29147 29.7363 8.27147C29.7363 9.25147 28.939 10.0488 27.9589 10.0488H23.5839H11.2109C10.2308 10.0488 9.43358 9.25147 9.43358 8.27147C9.43358 7.29147 10.2308 6.49413 11.2109 6.49413H27.9589ZM3.14453 5.12694C2.16446 5.12694 1.36718 4.3296 1.36718 3.3496C1.36718 2.36961 2.16446 1.57226 3.14453 1.57226H19.8925C20.8726 1.57226 21.6699 2.36961 21.6699 3.3496C21.6699 4.3296 20.8726 5.12694 19.8925 5.12694H3.14453ZM6.83592 11.416H23.5839C23.8593 11.416 24.123 11.48 24.3595 11.5945C24.0361 11.5674 23.7092 11.5528 23.3789 11.5528C20.1698 11.5528 17.2604 12.8604 15.1554 14.9707H6.83592C5.85593 14.9707 5.05858 14.1733 5.05858 13.1933C5.05858 12.2133 5.85593 11.416 6.83592 11.416ZM6.83592 16.3379H13.9873C13.2113 17.4011 12.6113 18.6002 12.2303 19.8925H6.83592C5.85586 19.8925 5.05858 19.0953 5.05858 18.1152C5.05858 17.1352 5.85586 16.3379 6.83592 16.3379ZM6.83592 21.2597H11.9164C11.8127 21.8827 11.7579 22.5219 11.7579 23.1739C11.7579 23.7307 11.7981 24.2783 11.8742 24.8144H6.83592C5.85586 24.8144 5.05858 24.0171 5.05858 23.0371C5.05858 22.057 5.85586 21.2597 6.83592 21.2597ZM6.83592 29.7363C5.85586 29.7363 5.05858 28.939 5.05858 27.9589C5.05858 26.9789 5.85586 26.1816 6.83592 26.1816H12.1533C12.4983 27.4676 13.0586 28.6662 13.7935 29.7363H6.83592ZM23.3789 33.4277C17.7249 33.4277 13.125 28.8278 13.125 23.1739C13.125 17.5199 17.7249 12.92 23.3789 12.92C29.0329 12.92 33.6328 17.5199 33.6328 23.1739C33.6328 28.8278 29.0329 33.4277 23.3789 33.4277Z"/>
</svg>
