<svg width="32" height="32" viewBox="0 0 32 32" xmlns="http://www.w3.org/2000/svg">
<g clip-path="url(#clip0)">
<path d="M24.3287 21.1687C23.2832 20.1365 21.9781 20.1365 20.9393 21.1687C20.1469 21.9544 19.3545 22.7402 18.5754 23.5392C18.3623 23.759 18.1825 23.8056 17.9228 23.6591C17.4101 23.3794 16.864 23.153 16.3713 22.8467C14.074 21.4017 12.1495 19.5439 10.4449 17.453C9.59917 16.4142 8.84672 15.3022 8.32067 14.0503C8.21412 13.7973 8.2341 13.6308 8.44053 13.4244C9.23293 12.6586 10.0054 11.8728 10.7845 11.0871C11.8699 9.99503 11.8699 8.71652 10.7778 7.6178C10.1585 6.99186 9.53924 6.37924 8.91997 5.75331C8.28071 5.11405 7.64812 4.46814 7.0022 3.83554C5.95676 2.81673 4.65161 2.81673 3.61282 3.8422C2.81376 4.62795 2.04798 5.43368 1.2356 6.20611C0.483143 6.91861 0.103586 7.79093 0.0236787 8.80974C-0.10284 10.4678 0.303352 12.0326 0.876018 13.5575C2.04798 16.7139 3.83257 19.5173 5.99671 22.0876C8.91997 25.5635 12.4092 28.3137 16.4911 30.298C18.329 31.1903 20.2334 31.8762 22.3044 31.9894C23.7294 32.0693 24.9679 31.7097 25.9601 30.5977C26.6393 29.8385 27.4051 29.146 28.1242 28.4202C29.1897 27.3415 29.1963 26.0363 28.1375 24.9709C26.8724 23.699 25.6005 22.4338 24.3287 21.1687Z"/>
<path d="M23.0569 15.8615L25.514 15.442C25.1278 13.1847 24.0624 11.1404 22.4442 9.5156C20.7329 7.80426 18.5688 6.72552 16.1849 6.39258L15.8386 8.86303C17.6831 9.12273 19.3612 9.95509 20.6863 11.2802C21.9382 12.5321 22.7572 14.1169 23.0569 15.8615Z"/>
<path d="M26.8989 5.18062C24.0623 2.34393 20.4731 0.552689 16.5111 0L16.1648 2.47045C19.5875 2.94989 22.6905 4.50141 25.141 6.94523C27.465 9.26919 28.9898 12.2058 29.5425 15.4353L31.9997 15.0158C31.3537 11.2735 29.5891 7.87748 26.8989 5.18062Z"/>
</g>
<defs>
<clipPath id="clip0">
<rect width="32" height="32" />
</clipPath>
</defs>
</svg>
