<svg viewBox="0 0 692 815" xmlns="http://www.w3.org/2000/svg">
	<path d="M568.573 705.446C454.868 511.262 454.58 287.919 560.162 117.329C564.98 109.455 566.769 102.243 563.834 101.066C535.99 90.0061 508.146 78.9483 480.3 67.8878C477.372 66.7166 467.288 71.5171 458.108 78.8554C259.935 238.023 170.106 475.33 214.508 700.679C216.515 711.089 227.71 719.539 239.099 719.59C345.32 720.217 451.539 720.843 557.76 721.473C569.161 721.523 573.849 714.388 568.573 705.446ZM488.688 228.238C447.328 217.337 405.965 206.436 364.605 195.535C374.933 181.659 385.872 168.087 397.417 154.855C433.605 165.602 469.793 176.348 505.981 187.095C499.633 200.582 493.869 214.306 488.688 228.238ZM477.941 260.189C473.651 274.411 469.949 288.812 466.842 303.363C416.531 292.667 366.218 281.971 315.907 271.276C324.052 256.441 332.827 241.848 342.22 227.534C387.462 238.419 432.702 249.304 477.941 260.189ZM460.798 336.622C458.588 351.375 456.974 366.252 455.961 381.219C396.924 371.312 337.888 361.403 278.852 351.496C284.757 335.921 291.307 320.526 298.496 305.345C352.595 315.772 406.698 326.197 460.798 336.622ZM454.691 415.327C454.587 430.411 455.085 445.559 456.191 460.739C388.716 452.172 321.243 443.609 253.768 435.043C257.375 418.946 261.642 402.967 266.564 387.138C329.271 396.536 391.981 405.931 454.691 415.327ZM459.747 495.231C461.771 510.438 464.403 525.653 467.649 540.841C392.087 534.147 316.523 527.449 240.96 520.755C242.21 504.357 244.135 488.015 246.734 471.764C317.739 479.585 388.744 487.408 459.747 495.231ZM476.074 575.253C480.25 590.382 485.043 605.461 490.455 620.456C407.213 616.13 323.967 611.806 240.724 607.479C239.556 590.999 239.084 574.511 239.3 558.051C318.226 563.785 397.149 569.519 476.074 575.253ZM539.04 127.193C532.809 136.933 526.929 146.845 521.378 156.911C489.131 146.415 456.886 135.917 424.639 125.42C434.201 115.669 444.104 106.13 454.364 96.8267C482.589 106.949 510.815 117.074 539.04 127.193ZM250.933 682.672C248.389 670.098 246.278 657.485 244.568 644.855C330.977 648.012 417.389 651.17 503.798 654.328C508.676 665.73 513.911 677.069 519.524 688.326C429.993 686.44 340.462 684.556 250.933 682.672Z"/>
</svg>
