<svg width="35" height="35" viewBox="0 0 35 35" xmlns="http://www.w3.org/2000/svg">
<g clip-path="url(#clip0)">
<path d="M32.3674 9.49639L32.3663 9.46915C32.3511 9.13296 32.341 8.77728 32.3348 8.38154C32.3062 6.45173 30.7722 4.85544 28.8421 4.74756C24.818 4.52299 21.705 3.21081 19.0451 0.618237L19.0224 0.596607C18.1548 -0.198869 16.8461 -0.198869 15.9783 0.596607L15.9556 0.618237C13.2957 3.21081 10.1827 4.52299 6.15858 4.74783C4.22877 4.85544 2.69443 6.45173 2.66586 8.38181C2.65998 8.77488 2.64957 9.13056 2.63435 9.46915L2.63275 9.53243C2.55451 13.6359 2.45731 18.7428 4.16575 23.3781C5.10516 25.9272 6.52788 28.143 8.39414 29.9644C10.5197 32.0386 13.3037 33.6854 16.6688 34.8587C16.7783 34.8969 16.892 34.9279 17.0079 34.9511C17.1714 34.9837 17.3358 35 17.5003 35C17.6648 35 17.8296 34.9837 17.9927 34.9511C18.1086 34.9279 18.2232 34.8966 18.3332 34.8582C21.6943 33.6827 24.4754 32.0352 26.599 29.9611C28.4645 28.1392 29.8872 25.9229 30.8274 23.3733C32.5423 18.7241 32.4454 13.6075 32.3674 9.49639ZM28.9006 22.6627C27.0987 27.5483 23.4203 30.9035 17.6555 32.9196C17.6349 32.9265 17.613 32.9326 17.5903 32.9372C17.5308 32.9489 17.4702 32.9489 17.4098 32.9369C17.3874 32.9324 17.3655 32.9265 17.3452 32.9196C11.5742 30.9072 7.89347 27.5539 6.0929 22.6681C4.51823 18.3954 4.60742 13.7074 4.68619 9.57169L4.68673 9.54872C4.70275 9.19331 4.71343 8.82107 4.7193 8.41198C4.73212 7.55509 5.41464 6.84613 6.27314 6.79833C8.55035 6.67123 10.5509 6.23117 12.3891 5.45305C14.225 4.67599 15.8554 3.58065 17.3732 2.10451C17.4504 2.03936 17.5505 2.03909 17.6274 2.10451C19.1455 3.58065 20.776 4.67599 22.6115 5.45305C24.4497 6.23117 26.4503 6.67123 28.7278 6.79833C29.5863 6.84613 30.2688 7.55509 30.2814 8.41225C30.2875 8.82347 30.2982 9.19571 30.3142 9.54872C30.3927 13.6893 30.4798 18.3809 28.9006 22.6627Z"/>
<path d="M17.5 8.77808C12.6902 8.77808 8.77747 12.6911 8.77747 17.5006C8.77747 22.3103 12.6902 26.2233 17.5 26.2233C22.3094 26.2233 26.2225 22.3103 26.2225 17.5006C26.2225 12.6911 22.3094 8.77808 17.5 8.77808ZM17.5 24.1693C13.8227 24.1693 10.8312 21.1778 10.8312 17.5006C10.8312 13.8233 13.8227 10.8318 17.5 10.8318C21.1769 10.8318 24.1685 13.8233 24.1685 17.5006C24.1685 21.1778 21.1769 24.1693 17.5 24.1693Z"/>
<path d="M20.0067 14.7927L15.9554 18.8441L14.8558 17.7444C14.4547 17.3434 13.8045 17.3434 13.4034 17.7444C13.0026 18.1455 13.0026 18.7957 13.4034 19.1965L15.2293 21.0225C15.4299 21.223 15.6926 21.3232 15.9554 21.3232C16.2181 21.3232 16.4809 21.223 16.6814 21.0225L21.4591 16.2448C21.8599 15.8437 21.8599 15.1935 21.4591 14.7927C21.058 14.3914 20.4078 14.3914 20.0067 14.7927Z"/>
</g>
<defs>
<clipPath id="clip0">
<rect width="35" height="35" fill="white"/>
</clipPath>
</defs>
</svg>
