<svg viewBox="0 0 30 30" xmlns="http://www.w3.org/2000/svg">
	<path d="M29.446 1.39406C28.9574 0.75576 28.1998 0.389893 27.3668 0.389893C26.8287 0.389893 26.2714 0.539617 25.7097 0.834562L1.7932 13.3742C0.0933275 14.267 -0.0248759 15.6111 0.00326772 16.147C0.0302856 16.6862 0.290333 18.0089 2.07351 18.717L5.12991 19.9261C5.70967 20.1557 6.3581 20.2739 7.05606 20.2739C7.16639 20.2739 7.27221 20.2593 7.3814 20.2537C7.33975 20.3077 7.28909 20.3494 7.25082 20.4056C6.68119 21.2578 6.65305 22.4129 7.16864 23.6568C7.17652 23.6782 7.1844 23.6962 7.19228 23.7142C8.09625 25.7169 9.10154 27.9774 9.22312 28.2915C9.52257 29.0728 10.2858 29.6109 11.1234 29.6109C12.4135 29.6109 12.7962 28.9895 14.907 25.5537C15.0714 25.3015 15.4372 24.7161 15.4992 23.9709C15.7457 24.0711 15.9776 24.1634 16.1757 24.2433L19.562 25.6235C20.2408 25.9004 20.8352 26.1447 21.1481 26.2742C21.245 26.3338 21.3474 26.3845 21.4544 26.4284C21.693 26.523 21.9474 26.5714 22.203 26.5714C23.743 26.5714 24.1122 25.2374 24.3104 24.5225C24.4083 24.169 24.5434 23.6793 24.6886 23.139L29.8535 4.16114C30.243 2.72807 29.7646 1.81284 29.446 1.39406ZM13.2015 24.473C13.2015 24.473 11.2855 27.5924 11.1223 27.5924C11.1178 27.5924 11.1155 27.5902 11.1133 27.5857C10.9253 27.0802 9.03175 22.8845 9.03175 22.8845C8.68277 22.0436 8.74581 21.3231 9.34583 21.3231C9.47754 21.3231 9.63515 21.358 9.81977 21.4346L11.29 22.199C11.5354 22.3667 11.8033 22.5119 12.0983 22.6279L12.1726 22.656L12.311 22.7258C13.4469 23.327 13.8083 23.5442 13.2015 24.473ZM27.906 3.62979L22.7433 22.6076C22.4518 23.6771 22.2086 24.5518 22.2041 24.5518C22.1996 24.5495 22.194 24.5293 22.194 24.5259C22.194 24.5191 21.3519 24.1746 20.323 23.7536L16.9345 22.3735C15.9056 21.9569 14.2181 21.2826 13.1835 20.8841L13.0124 20.8154L12.3797 20.4867C11.7527 20.006 11.6975 19.2135 12.3279 18.5414L22.8109 7.31661C23.2319 6.86743 23.3906 6.63553 23.2994 6.63553C23.2274 6.63553 22.9944 6.78525 22.6049 7.09033L9.34133 17.553C8.7627 18.0044 7.88349 18.2566 7.05719 18.2566C6.63391 18.2566 6.22301 18.1891 5.87291 18.0506L2.81876 16.8427C1.78645 16.434 1.74705 15.6798 2.72982 15.1619L26.6485 2.61999C26.9244 2.4759 27.1664 2.40835 27.3668 2.40835C27.8812 2.40835 28.1154 2.85865 27.906 3.62979Z"/>
</svg>
