<svg viewBox="0 0 132 110" xmlns="http://www.w3.org/2000/svg">
<path d="M101.62 25.6665C100.451 18.9269 96.5663 12.7293 90.5247 8.04031C83.844 2.85549 75.1346 0 66.0006 0C56.8665 0 48.1571 2.85549 41.4761 8.04031C35.4346 12.7293 31.5501 18.9269 30.3807 25.6665C17.3676 30.4017 8.78552 41.2038 8.78552 53.1616C8.78552 69.7 24.9315 83.1548 44.7774 83.1548C50.894 83.1548 56.8549 81.8589 62.1329 79.4365V110H69.8672V79.4365C75.1452 81.8589 81.106 83.1548 87.2226 83.1548C107.069 83.1548 123.215 69.6998 123.215 53.1616C123.215 41.2038 114.633 30.4015 101.62 25.6665ZM87.2232 76.7095C80.9135 76.7095 74.8147 74.954 69.8677 71.7419V52.03L87.2131 44.4299L83.6135 38.7252L69.8677 44.7481V32.0611H62.1334V59.0337L48.3876 53.0108L44.788 58.7155L62.1334 66.3156V71.7419C57.1865 74.954 51.0877 76.7095 44.778 76.7095C29.1965 76.7095 16.5204 66.1459 16.5204 53.1616C16.5204 43.2334 24.0552 34.3198 35.2698 30.9809L37.6355 30.2766L37.8247 28.1892C38.3605 22.2877 41.5293 16.807 46.7476 12.757C51.9918 8.68678 58.8295 6.44531 66.0006 6.44531C73.1716 6.44531 80.0093 8.68678 85.2537 12.7568C90.4721 16.8068 93.6409 22.2872 94.1766 28.189L94.3659 30.2764L96.7315 30.9807C107.946 34.3196 115.481 43.2332 115.481 53.1614C115.481 66.1459 102.805 76.7095 87.2232 76.7095Z"/>
</svg>
