<svg viewBox="0 0 30 30" xmlns="http://www.w3.org/2000/svg">
	<path d="M17.9729 1.08105L12.5675 1.08105C6.90592 1.08105 2.2998 5.68609 2.2998 11.3466L2.2998 16.2159C2.2998 20.4313 4.8901 24.2197 8.78501 25.7626L8.78501 28.9193C8.78501 29.1333 8.91093 29.3268 9.10656 29.4133C9.17682 29.4446 9.2514 29.4598 9.32544 29.4598C9.45676 29.4598 9.58701 29.4117 9.68807 29.3198L12.822 26.4814L17.9729 26.4814C23.6345 26.4814 28.2406 21.8764 28.2406 16.2159L28.2406 11.3466C28.2406 5.68609 23.6345 1.08105 17.9729 1.08105ZM27.1597 16.2159C27.1597 21.2803 23.0389 25.4006 17.9729 25.4006L12.6134 25.4006C12.4794 25.4006 12.3502 25.4503 12.2508 25.5405L9.86587 27.7006L9.86587 25.3881C9.86587 25.159 9.72158 24.9547 9.5054 24.879C5.84235 23.5836 3.38067 20.1021 3.38067 16.2159L3.38067 11.3466C3.38067 6.28219 7.50202 2.16192 12.5675 2.16192L17.9729 2.16192C23.0389 2.16192 27.1597 6.28219 27.1597 11.3466L27.1597 16.2159Z" />
	<path d="M22.4124 17.5608L19.0909 15.4034C18.7277 15.1672 18.2954 15.0872 17.8722 15.1748C17.4485 15.2639 17.0842 15.5141 16.8481 15.8789L16.6919 16.1189C15.2543 15.6438 13.6692 15.0369 12.7202 12.2899L13.1131 11.9484C13.7876 11.362 13.8584 10.3363 13.272 9.66071L10.6736 6.67157C10.478 6.44621 10.1364 6.42297 9.91107 6.61807L8.2795 8.03617C6.84843 9.28025 7.51695 11.1204 7.7369 11.7252C7.74663 11.7522 7.75852 11.7781 7.77257 11.8035C7.82932 11.9051 9.18418 14.323 11.3724 16.5518C13.5693 18.7897 17.5355 20.8563 17.6571 20.9163C18.11 21.2103 18.6196 21.3514 19.1238 21.3514C20.0091 21.3514 20.877 20.9174 21.3947 20.1219L22.5718 18.3093C22.7339 18.058 22.6626 17.7234 22.4124 17.5608ZM20.4879 19.5328C20.001 20.2829 18.9947 20.4959 18.2002 19.9835C18.1608 19.963 14.2205 17.911 12.1436 15.7952C10.2024 13.8177 8.91343 11.6209 8.73779 11.3144C8.30976 10.1141 8.38542 9.37644 8.98855 8.85222L10.2126 7.78865L12.4565 10.3698C12.6559 10.5989 12.6327 10.934 12.4046 11.1323L11.7415 11.7084C11.5799 11.8489 11.5162 12.071 11.5794 12.2753C12.71 15.9492 14.9085 16.6707 16.5135 17.1976L16.7476 17.2749C16.9816 17.3538 17.2377 17.2635 17.3718 17.0571L17.7549 16.4669C17.8338 16.3448 17.9549 16.2621 18.0954 16.2324C18.2364 16.2021 18.3802 16.2302 18.5023 16.3097L21.371 18.1725L20.4879 19.5328Z"/>
	<path d="M16.5037 9.8615C16.2161 9.77881 15.9173 9.9458 15.8357 10.2333C15.7541 10.5203 15.9205 10.8191 16.2075 10.9008C17.0127 11.1299 17.6542 11.7725 17.8812 12.5783C17.9482 12.816 18.165 12.9722 18.4011 12.9722C18.4498 12.9722 18.4989 12.9657 18.5481 12.9522C18.8351 12.8712 19.0026 12.5729 18.9216 12.2853C18.5935 11.1212 17.6667 10.1922 16.5037 9.8615Z" />
	<path d="M20.6165 13.0892C20.6651 13.0892 20.7143 13.0827 20.7635 13.0692C21.051 12.9881 21.218 12.6892 21.1369 12.4023C20.4992 10.1416 18.7001 8.33876 16.4411 7.69564C16.1541 7.61296 15.8553 7.78103 15.7737 8.068C15.6921 8.35497 15.8585 8.65383 16.1455 8.73544C18.0462 9.27587 19.5599 10.7939 20.0966 12.6957C20.1642 12.9335 20.3803 13.0892 20.6165 13.0892Z" />
	<path d="M16.2082 5.17888C15.9207 5.09619 15.6219 5.26318 15.5403 5.55124C15.4587 5.83821 15.6251 6.13707 15.9121 6.21867C19.1325 7.13471 21.698 9.70609 22.607 12.9287C22.674 13.1665 22.8907 13.3227 23.1269 13.3227C23.1755 13.3227 23.2247 13.3162 23.2739 13.3027C23.5608 13.2216 23.7284 12.9227 23.6473 12.6358C22.6372 9.05432 19.787 6.19759 16.2082 5.17888Z"/>
</svg>
