<svg viewBox="0 0 35 35" xmlns="http://www.w3.org/2000/svg">
	<path d="M31.154 20.9659L31.1351 20.9482C30.8363 20.6719 29.9209 19.7793 29.6122 19.3892C29.2499 18.9025 29.3334 18.5836 29.605 18.1058C29.9481 17.5019 30.6357 16.5756 31.3634 15.5948C33.694 12.4543 35.1987 10.2802 34.889 8.73586L34.7221 7.911L26.1149 7.91474C26.0848 7.99608 25.6356 9.97302 23.7402 13.3393C22.3658 15.7802 21.4644 16.547 21.1469 16.6824L21.0977 16.6674C20.9944 16.5395 20.8139 16.1944 20.7396 15.3048C20.6622 14.3729 20.7308 13.2446 20.7973 12.1536C20.875 10.8741 20.942 9.76914 20.7816 8.97853L20.5201 7.69053C20.2042 7.63997 19.0477 7.19289 15.8255 7.15891C13.0358 7.13028 12.2163 7.53402 11.8139 7.88986L10.4828 9.06682L12.1653 9.63403C12.8057 9.84994 13.0182 10.099 13.1926 11.3338C13.3063 12.1386 13.3659 13.491 13.2431 14.6985C13.0665 16.4298 12.6433 16.752 12.6214 16.7691C12.5485 16.7442 11.9303 16.4732 10.8571 14.1998C10.1127 12.6231 9.46005 10.758 8.98313 9.39618C8.43733 7.83662 8.53559 8.16865 8.25868 7.43181L-0.0683594 7.43155L0.470506 8.82816C2.71702 14.6562 4.77822 19.2076 7.53664 22.4765C10.5842 26.0882 14.3718 27.9792 19.4736 27.9792H20.499V26.9518C20.499 25.9913 20.5783 25.2997 20.7484 24.7753C20.8523 24.4558 20.9904 24.1918 21.1354 23.9149C21.3506 23.5071 21.561 23.3324 21.6758 23.3064C21.78 23.2826 21.9632 23.3591 22.1661 23.5108C22.7488 23.9462 23.2113 24.5182 23.701 25.1239C24.4075 25.998 25.1381 26.9015 26.2973 27.4931C26.9307 27.8163 28.0918 27.9795 28.7308 27.9795C28.8998 27.9795 34.9242 27.9792 34.9317 27.9792L34.8876 26.9096C34.822 25.3101 33.5656 23.3102 31.154 20.9659ZM28.7705 25.9244H28.754C28.3134 25.9317 27.4725 25.7869 27.2279 25.6622C26.4573 25.2689 25.9187 24.6025 25.2946 23.8308C24.7469 23.1531 24.1806 22.4524 23.392 21.8635C22.7544 21.387 22.1752 21.2476 21.7154 21.2476C21.5316 21.2476 21.3666 21.2698 21.2251 21.3019C20.6913 21.4223 19.9279 21.8071 19.3209 22.9573C19.1497 23.2845 18.9556 23.6551 18.7983 24.1399C18.6336 24.6471 18.531 25.2109 18.4822 25.8966C14.6375 25.6777 11.6374 24.1538 9.10276 21.15C6.74623 18.357 4.89224 14.4505 2.92878 9.48554C3.07084 9.48554 6.63061 9.48607 6.84076 9.48607C6.90511 9.6672 6.97454 9.86573 7.04824 10.076C7.56227 11.5451 8.26643 13.5569 9.09609 15.2724C10.2841 17.7291 11.369 18.8247 12.6137 18.8247C13.235 18.8247 13.7923 18.5609 14.2252 18.0614C14.8423 17.3494 15.2006 16.1743 15.3208 14.4687C15.4156 13.1237 15.3275 11.7841 15.2233 11.0459C15.1374 10.4386 15.0148 9.80098 14.7157 9.22976C15.9903 9.17223 17.6968 9.2632 18.778 9.41865C18.8763 9.95482 18.8122 11.0087 18.7503 12.0283C18.6005 14.4914 18.4459 17.0332 19.7471 18.2224C19.9759 18.4317 20.2187 18.5438 20.2256 18.5483L20.8878 18.7519C21.1434 18.673 22.6235 19.4253 25.4263 14.5246C26.3243 12.9543 27.1604 11.1449 27.6106 9.96312C28.6547 9.96098 32.2118 9.96499 32.6297 9.96552C32.0376 11.2709 30.6347 13.1328 29.7177 14.3686C28.9182 15.4458 28.2279 16.3761 27.8229 17.0888C27.0704 18.4129 27.1969 19.5931 27.9807 20.6341L27.993 20.6502C28.4303 21.208 29.5105 22.2408 29.7345 22.4489C31.3575 24.0278 32.1397 25.1619 32.5119 25.9242H28.7705V25.9244Z" />
</svg>
