<svg viewBox="0 0 30 30" xmlns="http://www.w3.org/2000/svg">
	<path d="M30 14.6139C30 22.6849 23.407 29.2276 15.2727 29.2276C12.6903 29.2276 10.2643 28.5676 8.15367 27.4092L0 30.0002L2.65833 22.1596C1.31733 19.9576 0.545 17.3749 0.545 14.6139C0.545 6.54291 7.13867 0.000244141 15.2727 0.000244141C23.4077 0.000244141 30 6.54291 30 14.6139ZM15.2727 2.32758C8.44467 2.32758 2.89067 7.83924 2.89067 14.6139C2.89067 17.3022 3.767 19.7919 5.24933 21.8172L3.70233 26.3802L8.46067 24.8679C10.4157 26.1516 12.7577 26.9002 15.273 26.9002C22.1 26.9002 27.655 21.3892 27.655 14.6146C27.655 7.83991 22.1003 2.32758 15.2727 2.32758ZM22.7097 17.9796C22.6187 17.8306 22.3783 17.7406 22.0177 17.5616C21.6563 17.3826 19.881 16.5156 19.551 16.3966C19.22 16.2772 18.9787 16.2172 18.7383 16.5756C18.498 16.9342 17.806 17.7406 17.595 17.9796C17.3843 18.2192 17.174 18.2492 16.8127 18.0699C16.452 17.8909 15.289 17.5122 13.91 16.2922C12.837 15.3429 12.1123 14.1709 11.9017 13.8119C11.6913 13.4536 11.8797 13.2599 12.06 13.0816C12.2227 12.9209 12.4213 12.6632 12.6017 12.4542C12.7827 12.2449 12.8427 12.0959 12.9623 11.8566C13.0833 11.6176 13.023 11.4086 12.9323 11.2289C12.8423 11.0499 12.1197 9.28724 11.819 8.56991C11.5183 7.85324 11.218 7.97258 11.007 7.97258C10.7967 7.97258 10.5557 7.94258 10.315 7.94258C10.0743 7.94258 9.683 8.03224 9.352 8.39058C9.02133 8.74924 8.089 9.61591 8.089 11.3782C8.089 13.1409 9.382 14.8439 9.563 15.0826C9.74333 15.3212 12.0597 19.0559 15.7297 20.4902C19.4 21.9239 19.4 21.4456 20.062 21.3856C20.7233 21.3259 22.1973 20.5192 22.4993 19.6832C22.7993 18.8459 22.7993 18.1289 22.7097 17.9796Z"/>
</svg>
